<svg width="45" height="44" viewBox="0 0 45 44" fill="none" xmlns="http://www.w3.org/2000/svg">
<path fill-rule="evenodd" clip-rule="evenodd" d="M24.1329 25.0054L44.3712 43.1349L25.757 23.4525C25.9782 23.0016 26.0932 22.506 26.0932 22.0036C26.0932 21.5012 25.9782 21.0056 25.757 20.5547L44.386 0.857422L24.1403 18.9721C23.6746 18.7593 23.1688 18.6492 22.6571 18.6492C22.1453 18.6492 21.6395 18.7593 21.1739 18.9721L0.920716 0.872282L19.5349 20.5473C19.3155 20.996 19.2015 21.4891 19.2015 21.9887C19.2015 22.4884 19.3155 22.9815 19.5349 23.4302L0.905884 43.1424L21.159 25.0054C21.6259 25.2183 22.133 25.3285 22.6459 25.3285C23.1589 25.3285 23.666 25.2183 24.1329 25.0054Z" fill="#EDF4F4"/>
</svg>
