<svg width="131" height="34" viewBox="0 0 131 34" fill="none" xmlns="http://www.w3.org/2000/svg">
<path fill-rule="evenodd" clip-rule="evenodd" d="M129.302 30.3262L129.064 29.5089L128.827 30.3113L128.671 30.7943H129.48L129.302 30.3262ZM130.043 32.4066L129.732 31.567H128.36L128.056 32.4066H127.099L128.694 28.2978H129.435L131.022 32.4066H130.043ZM123.636 31.1509C123.646 31.0944 123.646 31.0366 123.636 30.98C123.616 30.9255 123.583 30.877 123.539 30.8389C123.495 30.7901 123.439 30.7541 123.376 30.7348C123.298 30.7064 123.215 30.6937 123.132 30.6977H122.39V31.6042H123.132C123.205 31.6118 123.279 31.6039 123.35 31.5808C123.42 31.5578 123.485 31.5202 123.539 31.4704C123.612 31.3804 123.646 31.2659 123.636 31.1509V31.1509ZM123.539 29.5163C123.542 29.464 123.533 29.4119 123.514 29.3632C123.495 29.3146 123.466 29.2705 123.428 29.2339C123.313 29.149 123.17 29.1094 123.028 29.1225H122.331V29.9472H123.028C123.1 29.9543 123.173 29.946 123.242 29.923C123.311 29.9 123.375 29.8627 123.428 29.8135C123.505 29.7281 123.545 29.616 123.539 29.5014V29.5163ZM124.57 31.1509C124.572 31.3248 124.536 31.497 124.466 31.6562C124.401 31.8015 124.305 31.9308 124.185 32.0351C124.068 32.1429 123.932 32.2285 123.784 32.2877C123.625 32.348 123.457 32.3782 123.287 32.3769H121.418V28.2978H123.146C123.342 28.2925 123.538 28.3201 123.725 28.3795C123.881 28.4329 124.027 28.5134 124.155 28.6172C124.267 28.7214 124.355 28.848 124.415 28.9888C124.475 29.1372 124.505 29.2964 124.504 29.4569C124.503 29.6132 124.462 29.7667 124.385 29.9027C124.302 30.066 124.162 30.193 123.992 30.2593C124.084 30.2878 124.168 30.3389 124.237 30.4079C124.308 30.4733 124.371 30.5483 124.422 30.6308C124.467 30.7128 124.502 30.8002 124.526 30.8909C124.554 30.9746 124.569 31.0624 124.57 31.1509ZM117.451 29.0779V32.3769H116.568V29.1076H115.449V28.2978H118.593V29.1076L117.451 29.0779ZM112.86 31.4036C112.771 31.7087 112.577 31.9721 112.312 32.1466C112.025 32.3388 111.685 32.435 111.34 32.4215C111.102 32.429 110.865 32.3885 110.643 32.3026C110.454 32.2338 110.284 32.1219 110.146 31.9757C110.013 31.8284 109.914 31.6533 109.857 31.463C109.787 31.2548 109.751 31.0363 109.753 30.8166V29.8507C109.753 29.6432 109.788 29.4372 109.857 29.2414C109.916 29.0541 110.015 28.8818 110.146 28.7361C110.285 28.584 110.454 28.4625 110.643 28.3795C110.864 28.2908 111.102 28.2478 111.34 28.2532C111.688 28.2412 112.031 28.3401 112.319 28.5355C112.573 28.7196 112.763 28.9797 112.86 29.2785L112 29.5906C111.973 29.4499 111.897 29.3234 111.785 29.2339C111.659 29.1278 111.497 29.0745 111.333 29.0853C111.23 29.0798 111.128 29.1003 111.036 29.1448C110.957 29.1786 110.886 29.2294 110.828 29.2934C110.773 29.3555 110.733 29.4291 110.71 29.5089C110.681 29.5875 110.666 29.6704 110.665 29.7541V30.8686C110.664 30.9572 110.68 31.0453 110.71 31.1286C110.733 31.2084 110.773 31.282 110.828 31.3441C110.886 31.4103 110.957 31.4635 111.036 31.5001C111.13 31.5402 111.231 31.5604 111.333 31.5596C111.496 31.5654 111.657 31.5127 111.785 31.411C111.898 31.3193 111.974 31.1901 112 31.0469L112.86 31.4036ZM106.127 31.1509C106.127 31.0942 106.117 31.0379 106.095 30.9856C106.073 30.9332 106.041 30.8858 106.001 30.8463C105.948 30.7935 105.883 30.7535 105.813 30.729C105.742 30.7046 105.667 30.6964 105.593 30.7051H104.784V31.6116H105.593C105.667 31.6203 105.742 31.6121 105.813 31.5877C105.883 31.5632 105.948 31.5232 106.001 31.4704C106.042 31.4282 106.074 31.3782 106.096 31.3233C106.117 31.2685 106.128 31.2099 106.127 31.1509V31.1509ZM107.046 31.1509C107.056 31.3297 107.027 31.5085 106.962 31.6751C106.897 31.8418 106.796 31.9924 106.668 32.1168C106.371 32.3638 105.992 32.4886 105.608 32.4661H103.887V28.2978H104.792V29.8729H105.622C105.835 29.8668 106.046 29.9022 106.245 29.977C106.41 30.0357 106.561 30.1267 106.69 30.2444C106.805 30.3558 106.896 30.4899 106.957 30.6382C107.016 30.7822 107.046 30.9361 107.046 31.0915V31.1509ZM100.646 28.3572V32.4661H99.7489V29.1151H98.7699V30.0958C98.7706 30.3961 98.7558 30.6962 98.7254 30.9949C98.6935 31.2507 98.6261 31.5008 98.5252 31.7379C98.4253 31.9476 98.2718 32.1271 98.0802 32.258C97.8456 32.4006 97.576 32.4752 97.3016 32.4735L97.1755 31.7305C97.3275 31.7053 97.4706 31.6413 97.5908 31.5447C97.6931 31.4579 97.77 31.3449 97.8133 31.2178C97.8675 31.0672 97.9 30.9095 97.9097 30.7497C97.9097 30.5714 97.9097 30.3633 97.9097 30.133V28.2978L100.646 28.3572ZM91.6802 32.4661V28.2978H94.5799V29.1076H92.585V29.9398H94.3203V30.7274H92.6221V31.5893H94.617V32.4066L91.6802 32.4661ZM87.7126 29.1671V32.4661H86.8005V29.1076H85.6881V28.2978H88.8325V29.1076L87.7126 29.1671ZM79.4883 32.4066V28.2978H80.393V30.8686L81.2311 29.5534L82.0913 28.2978H82.8329V32.4066H81.9281V29.9175L81.3275 30.8909L80.2818 32.3769L79.4883 32.4066ZM74.8533 29.1151C74.751 29.1095 74.6489 29.13 74.5566 29.1745C74.4775 29.2084 74.4066 29.2591 74.349 29.3231C74.2941 29.3866 74.2514 29.4596 74.2229 29.5386C74.1997 29.6183 74.1873 29.7008 74.1858 29.7838V30.8983C74.1867 30.9862 74.1991 31.0737 74.2229 31.1584C74.2514 31.2373 74.2941 31.3104 74.349 31.3738C74.4063 31.44 74.4771 31.4932 74.5566 31.5299C74.6504 31.5699 74.7514 31.5901 74.8533 31.5893C74.948 31.5957 75.0431 31.581 75.1315 31.5463C75.22 31.5116 75.2997 31.4578 75.365 31.3887C75.4853 31.2544 75.5491 31.0787 75.543 30.8983V29.7838C75.5455 29.6979 75.531 29.6123 75.5005 29.532C75.4699 29.4517 75.4239 29.3782 75.365 29.3157C75.303 29.2504 75.2281 29.1989 75.1451 29.1644C75.0621 29.1298 74.9728 29.113 74.8829 29.1151H74.8533ZM74.8533 28.268C75.0815 28.2623 75.3085 28.3027 75.5207 28.3869C75.7113 28.4588 75.8841 28.5711 76.0274 28.7159C76.1708 28.8608 76.2812 29.035 76.3513 29.2265C76.4266 29.431 76.4643 29.6475 76.4625 29.8655V30.8314C76.4656 31.0592 76.4279 31.2857 76.3513 31.5001C76.2763 31.6882 76.1655 31.8598 76.025 32.0054C75.8813 32.1464 75.7094 32.2553 75.5207 32.3249C75.3066 32.4016 75.0806 32.4394 74.8533 32.4363C74.6146 32.4438 74.3771 32.4008 74.1562 32.31C73.969 32.2279 73.8001 32.1092 73.6593 31.9608C73.5274 31.8098 73.4289 31.6325 73.3701 31.4407C73.3015 31.2449 73.2664 31.0389 73.2662 30.8314V29.8655C73.2664 29.658 73.3015 29.452 73.3701 29.2562C73.4291 29.069 73.5278 28.8966 73.6593 28.751C73.7984 28.5988 73.9676 28.4774 74.1562 28.3943C74.3896 28.3021 74.6396 28.2591 74.8904 28.268H74.8533ZM69.7066 29.598C69.7108 29.529 69.6997 29.4598 69.674 29.3956C69.6484 29.3314 69.6088 29.2736 69.5582 29.2265C69.4343 29.1413 69.2856 29.0995 69.1355 29.1076H68.3939V30.0884H69.1355C69.2758 30.0909 69.4124 30.0435 69.5212 29.9547C69.5847 29.9182 69.6382 29.8665 69.677 29.8043C69.7158 29.7421 69.7387 29.6712 69.7436 29.598H69.7066ZM70.6261 29.598C70.6264 29.775 70.5885 29.9499 70.5149 30.1107C70.44 30.2648 70.3369 30.4034 70.2109 30.5194C70.0771 30.6348 69.9239 30.7254 69.7585 30.7868C69.5798 30.8502 69.3918 30.8828 69.2023 30.8834H68.4384V32.3695H67.5337V28.2978H69.2245C69.4234 28.2949 69.6213 28.325 69.8104 28.3869C69.9795 28.4419 70.1358 28.5303 70.2702 28.647C70.3974 28.7614 70.4964 28.9038 70.5594 29.0631C70.6294 29.2404 70.6646 29.4296 70.6632 29.6203L70.6261 29.598ZM63.5216 29.0853V32.3843H62.6539V29.1076H61.5341V28.2978H64.6562V29.1076L63.5216 29.0853ZM58.9311 31.3813C58.8392 31.685 58.6453 31.9475 58.3823 32.1243C58.0925 32.3157 57.7503 32.4118 57.4034 32.3992C57.1655 32.4053 56.9287 32.3649 56.7063 32.2803C56.5185 32.2097 56.3487 32.098 56.2094 31.9534C56.0788 31.8043 55.9803 31.6297 55.9202 31.4407C55.8523 31.2321 55.8197 31.0136 55.8238 30.7943V29.8284C55.8214 29.6213 55.854 29.4153 55.9202 29.2191C55.9824 29.0332 56.0807 28.8615 56.2094 28.7138C56.3485 28.5617 56.5177 28.4402 56.7063 28.3572C56.9282 28.2699 57.165 28.2269 57.4034 28.2309C57.7513 28.2189 58.094 28.3178 58.3823 28.5132C58.6394 28.6962 58.8316 28.9564 58.9311 29.2562L58.0708 29.5683C58.0379 29.4281 57.9597 29.3027 57.8483 29.2117C57.7227 29.1048 57.5604 29.0514 57.396 29.0631C57.2961 29.0581 57.1966 29.0786 57.1067 29.1225C57.0255 29.1524 56.9537 29.2038 56.8991 29.2711C56.8417 29.3327 56.7987 29.4063 56.773 29.4866C56.7445 29.5652 56.7295 29.6481 56.7285 29.7318V30.8463C56.7278 30.9349 56.7428 31.023 56.773 31.1063C56.7987 31.1866 56.8417 31.2602 56.8991 31.3218C56.9533 31.3913 57.025 31.4452 57.1067 31.4779C57.1977 31.5183 57.2964 31.5386 57.396 31.5373C57.5598 31.5445 57.7206 31.4916 57.8483 31.3887C57.9629 31.2973 58.0417 31.1684 58.0708 31.0246L58.9311 31.3813ZM47.3769 29.5609C47.3703 29.6234 47.3813 29.6866 47.4089 29.7431C47.4364 29.7996 47.4793 29.8472 47.5327 29.8804C47.6615 29.9444 47.8043 29.9751 47.948 29.9695H48.6228V29.1076H47.9183C47.7762 29.0995 47.6354 29.1387 47.5178 29.2191C47.4705 29.262 47.4333 29.315 47.4089 29.3741C47.3846 29.4332 47.3736 29.497 47.3769 29.5609ZM49.5276 28.2978V32.4066H48.6228V30.7423H48.2075C48.1385 30.7345 48.0689 30.7345 47.9999 30.7423C47.9312 30.7666 47.8682 30.8045 47.8145 30.8537C47.7538 30.9161 47.7015 30.986 47.6587 31.0618C47.6007 31.1682 47.5535 31.2802 47.5178 31.3961L47.236 32.3769H46.2794L46.5982 31.2327C46.6364 31.0917 46.6938 30.9567 46.7688 30.8314C46.8539 30.7014 46.9829 30.6064 47.1322 30.5639C47.0312 30.5309 46.9379 30.4778 46.8578 30.4079C46.7702 30.3366 46.6951 30.2512 46.6353 30.1553C46.5751 30.0596 46.5324 29.9539 46.5093 29.8432C46.4339 29.5547 46.4547 29.2494 46.5686 28.9739C46.6406 28.8229 46.7441 28.6891 46.872 28.5815C46.9999 28.4738 47.1493 28.3948 47.3102 28.3498C47.4743 28.2914 47.6478 28.2637 47.8219 28.268L49.5276 28.2978ZM39.9535 32.4066V28.2978H40.8582V30.8686L41.6963 29.5534L42.5639 28.2978H43.3055V32.4066H42.4082V29.9175L41.8075 30.8909L40.7618 32.3769L39.9535 32.4066ZM36.3048 32.4066H33.3384V28.2978H34.2506V31.5819H35.5929V28.2978H36.4902V31.5967H37.0242V33.38H36.2826L36.3048 32.4066ZM28.8146 29.1151C28.7148 29.1101 28.6153 29.1306 28.5254 29.1745C28.4507 29.2087 28.3848 29.2596 28.3326 29.3231C28.2849 29.3878 28.2497 29.4609 28.2288 29.5386C28.2179 29.62 28.2179 29.7024 28.2288 29.7838V30.8983C28.2174 30.9846 28.2174 31.072 28.2288 31.1584C28.2464 31.2372 28.282 31.3109 28.3326 31.3738C28.3782 31.4426 28.4426 31.4967 28.518 31.5299C28.6085 31.5718 28.7075 31.5922 28.8072 31.5893C28.8978 31.5973 28.9889 31.5832 29.0728 31.5483C29.1568 31.5133 29.231 31.4586 29.2893 31.3887C29.3952 31.248 29.4477 31.0742 29.4376 30.8983V29.7838C29.4425 29.6154 29.3902 29.4504 29.2893 29.3157C29.233 29.2454 29.1602 29.1902 29.0773 29.1552C28.9944 29.1202 28.9041 29.1064 28.8146 29.1151V29.1151ZM28.8146 28.268C29.0478 28.2605 29.28 28.301 29.4969 28.3869C29.6803 28.4612 29.845 28.5754 29.9789 28.7213C30.105 28.8696 30.2008 29.0412 30.2608 29.2265C30.3212 29.4341 30.3512 29.6493 30.3497 29.8655V30.8314C30.3514 31.0585 30.3163 31.2843 30.2459 31.5001C30.176 31.6856 30.073 31.8568 29.9419 32.0054C29.8049 32.1476 29.6376 32.2568 29.4524 32.3249C29.2437 32.4023 29.0224 32.4401 28.7998 32.4363C28.5635 32.4446 28.3282 32.4015 28.1101 32.31C27.9295 32.2278 27.7678 32.1089 27.6355 31.9608C27.5082 31.8089 27.4147 31.6316 27.3611 31.4407C27.301 31.2433 27.271 31.0378 27.2721 30.8314V30.7274H26.8346V32.4066H25.9298V28.2978H26.8346V29.9398H27.2573V29.8655C27.2549 29.6584 27.2875 29.4524 27.3537 29.2562C27.4075 29.0699 27.5011 28.8975 27.6281 28.751C27.7609 28.5983 27.9254 28.4766 28.1101 28.3943C28.3385 28.3025 28.5835 28.2594 28.8295 28.268H28.8146ZM22.7409 28.268V32.3769H21.8436V29.1151H20.9017V30.0958C20.9025 30.3961 20.8876 30.6962 20.8572 30.9949C20.8264 31.2518 20.7564 31.5023 20.6496 31.7379C20.5501 31.9456 20.3995 32.1246 20.2121 32.258C19.9752 32.402 19.7029 32.4766 19.426 32.4735L19.3073 31.7305C19.4594 31.7053 19.6024 31.6413 19.7226 31.5447C19.8228 31.4561 19.8993 31.3437 19.9451 31.2178C19.9958 31.0662 20.0281 30.909 20.0415 30.7497C20.0415 30.5714 20.0415 30.3633 20.0415 30.133V28.2978L22.7409 28.268ZM14.9689 29.1151C14.8691 29.1101 14.7696 29.1306 14.6797 29.1745C14.5973 29.2062 14.5235 29.2572 14.4646 29.3231C14.4121 29.387 14.3719 29.46 14.346 29.5386C14.3175 29.6172 14.3024 29.7001 14.3015 29.7838V30.8983C14.3007 30.987 14.3158 31.075 14.346 31.1584C14.3719 31.2369 14.4121 31.31 14.4646 31.3738C14.5233 31.4418 14.5969 31.4953 14.6797 31.5299C14.7707 31.5704 14.8694 31.5906 14.9689 31.5893C15.0647 31.5948 15.1606 31.5797 15.2501 31.5451C15.3396 31.5105 15.4207 31.4572 15.488 31.3887C15.6084 31.2544 15.6722 31.0787 15.666 30.8983V29.7838C15.6685 29.6979 15.6541 29.6123 15.6236 29.532C15.593 29.4517 15.547 29.3782 15.488 29.3157C15.4207 29.2472 15.3396 29.1939 15.2501 29.1593C15.1606 29.1247 15.0647 29.1096 14.9689 29.1151ZM14.9689 28.268C15.197 28.2637 15.4237 28.3041 15.6364 28.3869C15.8245 28.4646 15.9957 28.5782 16.1407 28.7213C16.2811 28.8669 16.3919 29.0385 16.467 29.2265C16.5363 29.4324 16.5713 29.6483 16.5708 29.8655V30.8314C16.5738 31.0592 16.5361 31.2857 16.4595 31.5001C16.3863 31.6891 16.2753 31.861 16.1332 32.0054C15.992 32.1495 15.8194 32.2588 15.629 32.3249C15.4173 32.4009 15.1938 32.4386 14.9689 32.4363C14.7155 32.4491 14.4623 32.406 14.2273 32.31C14.0434 32.2261 13.8772 32.1075 13.7379 31.9608C13.6037 31.8102 13.5027 31.633 13.4412 31.4407C13.375 31.2445 13.3424 31.0385 13.3448 30.8314V29.8655C13.3424 29.6584 13.375 29.4524 13.4412 29.2562C13.5029 29.0685 13.6041 28.8962 13.7379 28.751C13.8748 28.5997 14.0414 28.4783 14.2273 28.3943C14.4634 28.3023 14.7157 28.2593 14.9689 28.268V28.268ZM9.67389 31.1509C9.68045 31.0942 9.68045 31.0368 9.67389 30.98C9.65132 30.9271 9.61856 30.8791 9.57748 30.8389C9.53221 30.7916 9.47625 30.7559 9.41433 30.7348C9.33587 30.7069 9.25279 30.6943 9.1696 30.6977H8.428V31.6042H9.1696C9.24315 31.6118 9.31748 31.6039 9.38776 31.5808C9.45804 31.5578 9.52268 31.5202 9.57748 31.4704C9.6465 31.3788 9.68067 31.2655 9.67389 31.1509ZM9.57748 29.5163C9.57988 29.4634 9.57048 29.4105 9.54995 29.3617C9.52943 29.3129 9.4983 29.2692 9.45882 29.2339C9.34438 29.147 9.20114 29.1072 9.05836 29.1225H8.36125V29.9472H9.03611C9.10857 29.9558 9.18201 29.9482 9.25122 29.9251C9.32043 29.902 9.38372 29.8639 9.43658 29.8135C9.4812 29.7748 9.51691 29.7268 9.54123 29.673C9.56556 29.6191 9.57793 29.5606 9.57748 29.5014V29.5163ZM10.6009 31.1509C10.6048 31.3243 10.5719 31.4965 10.5045 31.6562C10.4365 31.7999 10.3407 31.9287 10.2227 32.0351C10.1041 32.1447 9.96564 32.2304 9.8148 32.2877C9.65847 32.3473 9.49256 32.3775 9.32534 32.3769H7.4565V28.2978H9.18443C9.38045 28.2925 9.57597 28.3201 9.76288 28.3795C9.91759 28.4311 10.0611 28.5118 10.1856 28.6172C10.3018 28.719 10.3931 28.8461 10.4526 28.9888C10.5133 29.1372 10.5435 29.2964 10.5416 29.4569C10.5371 29.6127 10.4965 29.7653 10.4229 29.9027C10.3402 30.066 10.2003 30.193 10.0299 30.2593V30.2593C10.1208 30.2914 10.2041 30.342 10.2746 30.4079C10.344 30.4735 10.4039 30.5486 10.4526 30.6308C10.5033 30.711 10.5409 30.7988 10.5638 30.8909C10.5901 30.975 10.6026 31.0628 10.6009 31.1509ZM2.07247 31.032C2.10815 31.1753 2.1856 31.3046 2.29495 31.4036C2.41447 31.505 2.56881 31.5557 2.72508 31.5447C2.82895 31.5489 2.93254 31.5312 3.02914 31.4927C3.10554 31.4511 3.17548 31.3985 3.23679 31.3367C3.29585 31.2716 3.34136 31.1953 3.37065 31.1124C3.39994 31.0295 3.41242 30.9415 3.40736 30.8537V30.7051H2.28754V29.9175H3.40736V29.7689C3.41469 29.6898 3.41469 29.6102 3.40736 29.5312C3.38968 29.4523 3.35415 29.3786 3.30353 29.3157C3.24967 29.2489 3.18115 29.1955 3.1033 29.1596C2.99921 29.1202 2.88816 29.1025 2.77699 29.1076C2.61932 29.1032 2.46489 29.153 2.33945 29.2488C2.22109 29.3348 2.13909 29.462 2.10955 29.6055L1.24929 29.3008C1.3507 29 1.54562 28.7396 1.80549 28.5578C2.10065 28.3652 2.44712 28.2668 2.79924 28.2755C3.05248 28.2659 3.30496 28.3089 3.54084 28.4018C3.7257 28.4801 3.88865 28.6025 4.01547 28.7584C4.13882 28.9062 4.22977 29.0784 4.28244 29.2637C4.336 29.4623 4.36342 29.6672 4.36402 29.8729V30.8463C4.36511 31.066 4.33003 31.2844 4.26019 31.4927C4.19851 31.6804 4.09736 31.8527 3.96356 31.998C3.82405 32.1441 3.65451 32.2582 3.46668 32.3323C3.24311 32.4128 3.00712 32.453 2.76958 32.4512C2.4253 32.4613 2.08621 32.3653 1.79808 32.1763C1.54372 31.9922 1.35418 31.7321 1.25671 31.4333L2.07247 31.032ZM119.535 5.96275L123.243 1.25204H129.873L122.865 10.1682L119.535 5.96275ZM51.8414 1.25204V16.2906C51.8404 17.1583 51.6683 18.0173 51.3348 18.818C51.0013 19.6188 50.5132 20.3457 49.8984 20.9568V20.9568C49.2865 21.5716 48.5594 22.0594 47.7589 22.3922C46.9585 22.725 46.1003 22.8962 45.2337 22.896H33.2939C31.5452 22.8921 29.869 22.1954 28.6311 20.9579C27.3932 19.7205 26.6941 18.0427 26.6862 16.2906V1.25204H31.8774V16.2906C31.8774 16.4726 31.9141 16.6527 31.9855 16.82C32.0569 16.9873 32.1614 17.1383 32.2927 17.264C32.4192 17.3942 32.5702 17.4981 32.7369 17.5695C32.9037 17.6409 33.0829 17.6785 33.2642 17.6801H45.204C45.3854 17.6789 45.5648 17.6415 45.7316 17.5701C45.8984 17.4986 46.0493 17.3946 46.1755 17.264V17.264C46.4358 17.0041 46.5825 16.6514 46.5834 16.2832V1.25204H51.8414ZM23.7495 22.896H7.11537C5.37083 22.8787 3.70241 22.1777 2.46739 20.9431C1.23237 19.7085 0.528928 18.0385 0.50769 16.2906V7.87972C0.513565 6.12642 1.21185 4.44671 2.44997 3.20763C3.68809 1.96854 5.36539 1.27082 7.11537 1.2669H23.7495V6.468H7.11537C6.74791 6.4689 6.39583 6.61588 6.13645 6.87666C5.88001 7.13546 5.73607 7.48532 5.73599 7.85V16.2906C5.735 16.4734 5.7702 16.6545 5.83954 16.8235C5.90889 16.9925 6.011 17.1461 6.13998 17.2753C6.26895 17.4045 6.42222 17.5068 6.59092 17.5763C6.75961 17.6458 6.94039 17.6811 7.12278 17.6801H23.7569L23.7495 22.896ZM79.4141 11.9886C79.7151 12.6171 79.8722 13.305 79.8739 14.0022V18.2596C79.8723 18.8677 79.751 19.4695 79.5168 20.0305C79.2827 20.5915 78.9403 21.1007 78.5094 21.5289V21.5289C78.0816 21.9596 77.5732 22.3015 77.0132 22.5348C76.4532 22.7682 75.8528 22.8884 75.2463 22.8886H54.704C54.7559 15.6814 54.704 8.49643 54.704 1.27433H75.2463C75.854 1.27398 76.4557 1.39392 77.017 1.62726C77.5782 1.8606 78.0879 2.20275 78.5168 2.63405V2.63405C79.3631 3.50514 79.8368 4.67278 79.8368 5.88845V9.92301C79.8533 10.6347 79.7087 11.3408 79.4141 11.9886V11.9886ZM74.6456 17.6727V14.5891H62.6984V9.38804H74.6605V6.53487H60.57C60.57 10.2499 60.6071 13.965 60.6071 17.6801L74.6456 17.6727ZM79.9703 22.8738C81.5796 19.6788 83.0406 16.729 84.4941 13.7793C86.4074 9.90072 88.3208 6.01476 89.9819 2.76036L90.0487 2.64148C90.4359 2.01875 90.9776 1.50726 91.621 1.15695C92.2644 0.80664 92.9875 0.629479 93.7196 0.642767C94.4658 0.611733 95.2066 0.781419 95.8652 1.1342C96.5238 1.48698 97.0761 2.00999 97.4647 2.64891L97.5463 2.79008L106.965 21.945L114.863 11.8697L106.542 1.25204H113.172L130.125 22.8738H123.495L118.185 16.0975L112.86 22.8738H96.9456L90.7161 19.9017L93.0596 15.2356L99.3335 18.2076L93.7493 6.83951C92.1103 10.0865 90.642 13.0734 89.1662 16.0603C88.0241 18.3637 86.8895 20.6744 85.8067 22.844L79.9703 22.8738Z" fill="#828282"/>
</svg>
